<svg width="63" height="63" viewBox="0 0 63 63" fill="none" xmlns="http://www.w3.org/2000/svg">
<path d="M36.5791 62.5898C36.3166 62.6326 36.0532 62.672 35.7889 62.7081C36.0532 62.672 36.3166 62.6326 36.5791 62.5898Z" fill="black"/>
<path d="M37.2092 62.4824C37.0837 62.5055 36.9583 62.5266 36.8328 62.5483C36.9583 62.5266 37.0837 62.5055 37.2092 62.4824Z" fill="black"/>
<path d="M35.0852 62.7959C34.778 62.8305 34.469 62.8613 34.1589 62.8872C34.469 62.8613 34.778 62.8305 35.0852 62.7959Z" fill="black"/>
<path d="M35.6903 62.7217C35.5428 62.7414 35.3943 62.7597 35.2462 62.777C35.3943 62.7597 35.5428 62.7414 35.6903 62.7217Z" fill="black"/>
<path d="M38.0667 62.312C37.9561 62.3356 37.8451 62.3591 37.7341 62.3817C37.8451 62.3591 37.9561 62.3356 38.0667 62.312Z" fill="black"/>
<path d="M40.195 61.7837C40.1056 61.8092 40.0162 61.8332 39.9268 61.8582C40.0162 61.8332 40.1056 61.8092 40.195 61.7837Z" fill="black"/>
<path d="M39.5514 61.9595C39.4543 61.9849 39.3567 62.0109 39.2592 62.0354C39.3567 62.0109 39.4543 61.9854 39.5514 61.9595Z" fill="black"/>
<path d="M38.7093 62.1699C38.6064 62.194 38.5026 62.2165 38.3988 62.2396C38.5026 62.2165 38.6064 62.194 38.7093 62.1699Z" fill="black"/>
<path d="M34.1489 62.8882C33.9831 62.9021 33.8172 62.9146 33.6509 62.9257C33.8172 62.9146 33.9831 62.9021 34.1489 62.8882Z" fill="black"/>
<path d="M63 31.5C63 14.1057 48.8943 0 31.5 0C14.1057 0 0 14.1057 0 31.5C0 48.8943 14.1057 63 31.5 63C31.6851 63 31.8691 62.9962 32.0537 62.9928V38.4714H25.2861V30.5844H32.0537V24.7805C32.0537 18.0494 36.1628 14.3859 42.1671 14.3859C45.0424 14.3859 47.5139 14.6003 48.2344 14.6959V21.7308H44.094C40.8275 21.7308 40.195 23.2833 40.195 25.5611V30.5844H48.0056L46.9876 38.4714H40.195V61.783C53.3615 58.0084 63 45.8782 63 31.5Z" fill="black"/>
<path d="M33.5813 62.9297C33.2534 62.9508 32.9242 62.9677 32.594 62.9787C32.9242 62.9677 33.2534 62.9508 33.5813 62.9297Z" fill="black"/>
<path d="M32.5771 62.98C32.4032 62.9857 32.2287 62.9901 32.0542 62.993C32.2287 62.9901 32.4032 62.9857 32.5771 62.98Z" fill="black"/>
</svg>
