<svg width="63" height="63" viewBox="0 0 63 63" fill="none" xmlns="http://www.w3.org/2000/svg">
<path d="M37.5293 31.5C37.5293 34.83 34.83 37.5293 31.5 37.5293C28.17 37.5293 25.4707 34.83 25.4707 31.5C25.4707 28.17 28.17 25.4707 31.5 25.4707C34.83 25.4707 37.5293 28.17 37.5293 31.5Z" fill="black"/>
<path d="M45.6004 20.8324C45.3106 20.047 44.8482 19.3361 44.2474 18.7526C43.6639 18.1518 42.9535 17.6894 42.1676 17.3996C41.5303 17.152 40.5728 16.8574 38.8093 16.7771C36.9016 16.6901 36.3296 16.6714 31.5 16.6714C26.67 16.6714 26.098 16.6897 24.1908 16.7766C22.4272 16.8574 21.4693 17.152 20.8324 17.3996C20.0466 17.6894 19.3357 18.1518 18.7527 18.7526C18.1518 19.3361 17.6895 20.0465 17.3991 20.8324C17.1516 21.4697 16.857 22.4277 16.7767 24.1912C16.6897 26.0984 16.671 26.6704 16.671 31.5005C16.671 36.33 16.6897 36.902 16.7767 38.8097C16.857 40.5732 17.1516 41.5307 17.3991 42.168C17.6895 42.9539 18.1514 43.6643 18.7522 44.2478C19.3357 44.8486 20.0461 45.311 20.832 45.6009C21.4693 45.8489 22.4272 46.1435 24.1908 46.2238C26.098 46.3108 26.6695 46.3291 31.4995 46.3291C36.3301 46.3291 36.9021 46.3108 38.8088 46.2238C40.5723 46.1435 41.5303 45.8489 42.1676 45.6009C43.7451 44.9924 44.9919 43.7455 45.6004 42.168C45.848 41.5307 46.1426 40.5732 46.2234 38.8097C46.3104 36.902 46.3286 36.33 46.3286 31.5005C46.3286 26.6704 46.3104 26.0984 46.2234 24.1912C46.1431 22.4277 45.8484 21.4697 45.6004 20.8324ZM31.5 40.7881C26.37 40.7881 22.2114 36.63 22.2114 31.5C22.2114 26.37 26.37 22.2119 31.5 22.2119C36.6295 22.2119 40.7881 26.37 40.7881 31.5C40.7881 36.63 36.6295 40.7881 31.5 40.7881ZM41.1554 24.0153C39.9566 24.0153 38.9847 23.0434 38.9847 21.8446C38.9847 20.6459 39.9566 19.674 41.1554 19.674C42.3541 19.674 43.326 20.6459 43.326 21.8446C43.3255 23.0434 42.3541 24.0153 41.1554 24.0153Z" fill="black"/>
<path d="M31.5 0C14.1057 0 0 14.1057 0 31.5C0 48.8943 14.1057 63 31.5 63C48.8943 63 63 48.8943 63 31.5C63 14.1057 48.8943 0 31.5 0ZM49.4788 38.9573C49.3913 40.8828 49.0851 42.1974 48.6381 43.3481C47.6984 45.7778 45.7778 47.6984 43.3481 48.6381C42.1979 49.0851 40.8828 49.3908 38.9578 49.4788C37.0289 49.5667 36.4127 49.5879 31.5005 49.5879C26.5877 49.5879 25.972 49.5667 24.0427 49.4788C22.1177 49.3908 20.8026 49.0851 19.6524 48.6381C18.445 48.1839 17.352 47.4721 16.4484 46.5516C15.5284 45.6485 14.8166 44.555 14.3624 43.3481C13.9154 42.1979 13.6092 40.8828 13.5217 38.9578C13.4328 37.0285 13.4121 36.4123 13.4121 31.5C13.4121 26.5877 13.4328 25.9715 13.5212 24.0427C13.6087 22.1172 13.9144 20.8026 14.3614 19.6519C14.8156 18.445 15.5279 17.3515 16.4484 16.4484C17.3515 15.5279 18.445 14.8161 19.6519 14.3619C20.8026 13.9149 22.1172 13.6092 24.0427 13.5212C25.9715 13.4333 26.5877 13.4121 31.5 13.4121C36.4123 13.4121 37.0285 13.4333 38.9573 13.5217C40.8828 13.6092 42.1974 13.9149 43.3481 14.3614C44.555 14.8156 45.6485 15.5279 46.5521 16.4484C47.4721 17.352 48.1844 18.445 48.6381 19.6519C49.0856 20.8026 49.3913 22.1172 49.4793 24.0427C49.5672 25.9715 49.5879 26.5877 49.5879 31.5C49.5879 36.4123 49.5672 37.0285 49.4788 38.9573Z" fill="black"/>
</svg>
